REM DIRINDEX 1\2\6,1\2\7,1\2\8,1\2\9,1\3\10,1\3\11,1\4\12,1\4\13,1\4\14,1\5\15,1\5\16,1\5\17
REM DIRNAME cjc020,folder01,folder02,folder03,folder04,folder05,folder06,folder07,folder08,folder09,folder10,folder11,folder12,folder13,folder14,folder15,folder16
TITLE ""
FILE "1900_3_089 sec15_1467_1482.mp3" MP3
  TRACK 01 AUDIO
    TITLE "0:"
    INDEX 01 00:00:00
  TRACK 02 AUDIO
    TITLE "17:cjc020_8915"
    INDEX 01 00:00:13
  TRACK 03 AUDIO
    TITLE "0:"
    INDEX 01 00:01:24
  TRACK 04 AUDIO
    TITLE "16:cjc020_8916"
    INDEX 01 00:01:30
  TRACK 05 AUDIO
    TITLE "0:"
    INDEX 01 00:02:63
  TRACK 06 AUDIO
    TITLE "17:cjc020_8917"
    INDEX 01 00:03:45
  TRACK 07 AUDIO
    TITLE "0:"
    INDEX 01 00:04:74
  TRACK 08 AUDIO
    TITLE "16:cjc020_8918"
    INDEX 01 00:05:05
  TRACK 09 AUDIO
    TITLE "0:"
    INDEX 01 00:06:14
  TRACK 10 AUDIO
    TITLE "17:cjc020_8919"
    INDEX 01 00:07:00
  TRACK 11 AUDIO
    TITLE "0:"
    INDEX 01 00:08:21
  TRACK 12 AUDIO
    TITLE "16:cjc020_8920"
    INDEX 01 00:08:23
  TRACK 13 AUDIO
    TITLE "0:"
    INDEX 01 00:09:22
  TRACK 14 AUDIO
    TITLE "17:cjc020_8921"
    INDEX 01 00:10:06
  TRACK 15 AUDIO
    TITLE "0:"
    INDEX 01 00:12:11
  TRACK 16 AUDIO
    TITLE "16:cjc020_8922"
    INDEX 01 00:12:12
  TRACK 17 AUDIO
    TITLE "0:"
    INDEX 01 00:13:24
  TRACK 18 AUDIO
    TITLE "17:cjc020_8923"
    INDEX 01 00:14:06
  TRACK 19 AUDIO
    TITLE "0:"
    INDEX 01 00:16:22
  TRACK 20 AUDIO
    TITLE "16:cjc020_8924"
    INDEX 01 00:16:24
  TRACK 21 AUDIO
    TITLE "0:"
    INDEX 01 00:17:33
  TRACK 22 AUDIO
    TITLE "17:cjc020_8925"
    INDEX 01 00:18:13
  TRACK 23 AUDIO
    TITLE "0:"
    INDEX 01 00:19:52
  TRACK 24 AUDIO
    TITLE "16:cjc020_8926"
    INDEX 01 00:19:60
  TRACK 25 AUDIO
    TITLE "0:"
    INDEX 01 00:21:11
  TRACK 26 AUDIO
    TITLE "17:cjc020_8927"
    INDEX 01 00:21:70
  TRACK 27 AUDIO
    TITLE "0:"
    INDEX 01 00:22:74
  TRACK 28 AUDIO
    TITLE "16:cjc020_8928"
    INDEX 01 00:23:03
  TRACK 29 AUDIO
    TITLE "0:"
    INDEX 01 00:24:20
  TRACK 30 AUDIO
    TITLE "17:cjc020_8929"
    INDEX 01 00:25:03
  TRACK 31 AUDIO
    TITLE "0:"
    INDEX 01 00:26:13
  TRACK 32 AUDIO
    TITLE "16:cjc020_8930"
    INDEX 01 00:26:17
  TRACK 33 AUDIO
    TITLE "0:"
    INDEX 01 00:27:22
  TRACK 34 AUDIO
    TITLE "17:cjc020_8931"
    INDEX 01 00:28:06
  TRACK 35 AUDIO
    TITLE "0:"
    INDEX 01 00:30:61
  TRACK 36 AUDIO
    TITLE "16:cjc020_8932"
    INDEX 01 00:30:63
  TRACK 37 AUDIO
    TITLE "0:"
    INDEX 01 00:32:03
  TRACK 38 AUDIO
    TITLE "17:cjc020_8933"
    INDEX 01 00:32:56
  TRACK 39 AUDIO
    TITLE "0:"
    INDEX 01 00:34:16
  TRACK 40 AUDIO
    TITLE "16:cjc020_8934"
    INDEX 01 00:34:24
  TRACK 41 AUDIO
    TITLE "0:"
    INDEX 01 00:35:43
  TRACK 42 AUDIO
    TITLE "17:cjc020_8935"
    INDEX 01 00:36:17
  TRACK 43 AUDIO
    TITLE "0:"
    INDEX 01 00:37:52
  TRACK 44 AUDIO
    TITLE "16:cjc020_8936"
    INDEX 01 00:37:57
  TRACK 45 AUDIO
    TITLE "0:"
    INDEX 01 00:39:19
  TRACK 46 AUDIO
    TITLE "17:cjc020_8937"
    INDEX 01 00:40:03
  TRACK 47 AUDIO
    TITLE "0:"
    INDEX 01 00:43:09
  TRACK 48 AUDIO
    TITLE "16:cjc020_8938"
    INDEX 01 00:43:11
  TRACK 49 AUDIO
    TITLE "0:"
    INDEX 01 00:44:34
  TRACK 50 AUDIO
    TITLE "17:cjc020_8939"
    INDEX 01 00:45:20
  TRACK 51 AUDIO
    TITLE "0:"
    INDEX 01 00:46:51
  TRACK 52 AUDIO
    TITLE "16:cjc020_8940"
    INDEX 01 00:46:53
  TRACK 53 AUDIO
    TITLE "0:"
    INDEX 01 00:48:00
  TRACK 54 AUDIO
    TITLE "17:cjc020_8941"
    INDEX 01 00:48:59
  TRACK 55 AUDIO
    TITLE "0:"
    INDEX 01 00:50:52
  TRACK 56 AUDIO
    TITLE "16:cjc020_8942"
    INDEX 01 00:50:54
  TRACK 57 AUDIO
    TITLE "0:"
    INDEX 01 00:52:24
  TRACK 58 AUDIO
    TITLE "17:cjc020_8943"
    INDEX 01 00:52:71
  TRACK 59 AUDIO
    TITLE "0:"
    INDEX 01 00:53:64
  TRACK 60 AUDIO
    TITLE "16:cjc020_8944"
    INDEX 01 00:53:70
  TRACK 61 AUDIO
    TITLE "0:"
    INDEX 01 00:55:04
  TRACK 62 AUDIO
    TITLE "17:cjc020_8945"
    INDEX 01 00:55:61
  TRACK 63 AUDIO
    TITLE "0:"
    INDEX 01 00:56:61
  TRACK 64 AUDIO
    TITLE "16:cjc020_8946"
    INDEX 01 00:56:67
  TRACK 65 AUDIO
    TITLE "0:"
    INDEX 01 00:58:22
